<?xml version="1.0" standalone="no"?><!DOCTYPE svg PUBLIC "-//W3C//DTD SVG 1.1//EN" "http://www.w3.org/Graphics/SVG/1.1/DTD/svg11.dtd"><svg t="1594631938657" class="icon" viewBox="0 0 1024 1024" version="1.1" xmlns="http://www.w3.org/2000/svg" p-id="2230" xmlns:xlink="http://www.w3.org/1999/xlink" width="32" height="32"><defs><style type="text/css"></style></defs><path d="M672 216a24 24 0 1 1 0-48h79.328c57.76 0 104.672 46.4 104.672 103.808V352a24 24 0 1 1-48 0V271.808c0-30.752-25.312-55.808-56.672-55.808H672zM808 672a24 24 0 1 1 48 0v80.064c0 57.472-47.008 103.936-104.864 103.936H672a24 24 0 1 1 0-48h79.136c31.456 0 56.864-25.088 56.864-55.936V672zM352 808a24 24 0 1 1 0 48H272.192a104.16 104.16 0 0 1-104.192-104.128V672a24 24 0 1 1 48 0v79.872c0 31.008 25.152 56.128 56.192 56.128H352zM216 352a24 24 0 1 1-48 0V270.592c0-56.704 46.304-102.592 103.36-102.592H352a24 24 0 1 1 0 48H271.36c-30.624 0-55.36 24.48-55.36 54.592V352zM192 534.112h640a24 24 0 0 0 0-48H192a24 24 0 1 0 0 48z" fill="#ffa500" p-id="2231"></path></svg>